<svg height="510" width="720" xmlns="http://www.w3.org/2000/svg">
<rect height="510" fill="#555" width="720"></rect>
<text fill="#7f7" font-family="Courier New" font-size="12" xml:space="preserve">
<tspan x="10" y="26">3 megabytes installed</tspan>
<tspan x="10" y="42"></tspan>
<tspan x="10" y="58">node_modules</tspan>
<tspan x="10" y="74">└─┬ chai-http@3.0.0 </tspan>
<tspan x="10" y="90">  ├── cookiejar@2.0.6 </tspan>
<tspan x="10" y="106">  ├─┬ is-ip@1.0.0 </tspan>
<tspan x="10" y="122">  │ └── ip-regex@1.0.3 </tspan>
<tspan x="10" y="138">  ├── methods@1.1.2 </tspan>
<tspan x="10" y="154">  ├── qs@6.4.0 </tspan>
<tspan x="10" y="170">  └─┬ superagent@2.3.0 </tspan>
<tspan x="10" y="186">    ├── component-emitter@1.2.1 </tspan>
<tspan x="10" y="202">    ├─┬ debug@2.6.4 </tspan>
<tspan x="10" y="218">    │ └── ms@0.7.3 </tspan>
<tspan x="10" y="234">    ├── extend@3.0.0 </tspan>
<tspan x="10" y="250">    ├─┬ form-data@1.0.0-rc4 </tspan>
<tspan x="10" y="266">    │ ├── async@1.5.2 </tspan>
<tspan x="10" y="282">    │ ├─┬ combined-stream@1.0.5 </tspan>
<tspan x="10" y="298">    │ │ └── delayed-stream@1.0.0 </tspan>
<tspan x="10" y="314">    │ └─┬ mime-types@2.1.15 </tspan>
<tspan x="10" y="330">    │   └── mime-db@1.27.0 </tspan>
<tspan x="10" y="346">    ├── formidable@1.1.1 </tspan>
<tspan x="10" y="362">    ├── mime@1.3.4 </tspan>
<tspan x="10" y="378">    └─┬ readable-stream@2.2.9 </tspan>
<tspan x="10" y="394">      ├── buffer-shims@1.0.0 </tspan>
<tspan x="10" y="410">      ├── core-util-is@1.0.2 </tspan>
<tspan x="10" y="426">      ├── inherits@2.0.3 </tspan>
<tspan x="10" y="442">      ├── isarray@1.0.0 </tspan>
<tspan x="10" y="458">      ├── process-nextick-args@1.0.7 </tspan>
<tspan x="10" y="474">      ├── string_decoder@1.0.0 </tspan>
<tspan x="10" y="490">      └── util-deprecate@1.0.2</tspan>
</text>
</svg>
